ISO-10303-21;
HEADER;
/* Generated by software containing ST-Developer
 * from STEP Tools, Inc. (www.steptools.com) 
 */

FILE_DESCRIPTION(
/* description */ (''),
/* implementation_level */ '2;1');

FILE_NAME(
/* name */ 'MACROPAD ROTARY ENCODER.step',
/* time_stamp */ '2026-07-09T13:55:22-05:00',
/* author */ (''),
/* organization */ (''),
/* preprocessor_version */ 'ST-DEVELOPER v20.1',
/* originating_system */ 'Autodesk Translation Framework v15.8.0.0',
/* authorisation */ '');

FILE_SCHEMA (('AUTOMOTIVE_DESIGN { 1 0 10303 214 3 1 1 }'));
ENDSEC;

DATA;
#10=MECHANICAL_DESIGN_GEOMETRIC_PRESENTATION_REPRESENTATION('',(#13),#226);
#11=SHAPE_REPRESENTATION_RELATIONSHIP('SRR','None',#233,#12);
#12=ADVANCED_BREP_SHAPE_REPRESENTATION('',(#14),#225);
#13=STYLED_ITEM('',(#243),#14);
#14=MANIFOLD_SOLID_BREP('Body1',#119);
#15=FACE_BOUND('',#43,.T.);
#16=PLANE('',#140);
#17=PLANE('',#145);
#18=PLANE('',#146);
#19=PLANE('',#149);
#20=LINE('',#200,#25);
#21=LINE('',#207,#26);
#22=LINE('',#217,#27);
#23=LINE('',#220,#28);
#24=LINE('',#221,#29);
#25=VECTOR('',#162,4.75);
#26=VECTOR('',#169,10.);
#27=VECTOR('',#182,10.);
#28=VECTOR('',#187,10.);
#29=VECTOR('',#188,10.);
#30=CYLINDRICAL_SURFACE('',#137,4.75);
#31=CYLINDRICAL_SURFACE('',#148,2.);
#32=FACE_OUTER_BOUND('',#40,.T.);
#33=FACE_OUTER_BOUND('',#41,.T.);
#34=FACE_OUTER_BOUND('',#42,.T.);
#35=FACE_OUTER_BOUND('',#44,.T.);
#36=FACE_OUTER_BOUND('',#45,.T.);
#37=FACE_OUTER_BOUND('',#46,.T.);
#38=FACE_OUTER_BOUND('',#47,.T.);
#39=FACE_OUTER_BOUND('',#48,.T.);
#40=EDGE_LOOP('',(#81,#82,#83,#84));
#41=EDGE_LOOP('',(#85,#86,#87,#88,#89));
#42=EDGE_LOOP('',(#90));
#43=EDGE_LOOP('',(#91,#92));
#44=EDGE_LOOP('',(#93,#94,#95,#96,#97));
#45=EDGE_LOOP('',(#98));
#46=EDGE_LOOP('',(#99,#100));
#47=EDGE_LOOP('',(#101,#102,#103,#104));
#48=EDGE_LOOP('',(#105,#106,#107,#108));
#49=CIRCLE('',#134,3.75);
#50=CIRCLE('',#135,1.);
#51=CIRCLE('',#136,4.75);
#52=CIRCLE('',#138,4.75);
#53=CIRCLE('',#139,4.75);
#54=CIRCLE('',#141,2.);
#55=CIRCLE('',#143,3.75);
#56=CIRCLE('',#144,1.);
#57=CIRCLE('',#147,2.);
#58=VERTEX_POINT('',#193);
#59=VERTEX_POINT('',#195);
#60=VERTEX_POINT('',#199);
#61=VERTEX_POINT('',#201);
#62=VERTEX_POINT('',#205);
#63=VERTEX_POINT('',#206);
#64=VERTEX_POINT('',#210);
#65=VERTEX_POINT('',#215);
#66=VERTEX_POINT('',#216);
#67=EDGE_CURVE('',#58,#58,#49,.T.);
#68=EDGE_CURVE('',#58,#59,#50,.T.);
#69=EDGE_CURVE('',#59,#59,#51,.T.);
#70=EDGE_CURVE('',#59,#60,#20,.T.);
#71=EDGE_CURVE('',#61,#60,#52,.T.);
#72=EDGE_CURVE('',#60,#61,#53,.T.);
#73=EDGE_CURVE('',#62,#63,#21,.T.);
#74=EDGE_CURVE('',#63,#62,#54,.T.);
#75=EDGE_CURVE('',#64,#64,#55,.T.);
#76=EDGE_CURVE('',#64,#61,#56,.T.);
#77=EDGE_CURVE('',#65,#66,#22,.T.);
#78=EDGE_CURVE('',#66,#65,#57,.T.);
#79=EDGE_CURVE('',#66,#62,#23,.T.);
#80=EDGE_CURVE('',#65,#63,#24,.T.);
#81=ORIENTED_EDGE('',*,*,#67,.T.);
#82=ORIENTED_EDGE('',*,*,#68,.T.);
#83=ORIENTED_EDGE('',*,*,#69,.T.);
#84=ORIENTED_EDGE('',*,*,#68,.F.);
#85=ORIENTED_EDGE('',*,*,#69,.F.);
#86=ORIENTED_EDGE('',*,*,#70,.T.);
#87=ORIENTED_EDGE('',*,*,#71,.F.);
#88=ORIENTED_EDGE('',*,*,#72,.F.);
#89=ORIENTED_EDGE('',*,*,#70,.F.);
#90=ORIENTED_EDGE('',*,*,#67,.F.);
#91=ORIENTED_EDGE('',*,*,#73,.T.);
#92=ORIENTED_EDGE('',*,*,#74,.T.);
#93=ORIENTED_EDGE('',*,*,#75,.T.);
#94=ORIENTED_EDGE('',*,*,#76,.T.);
#95=ORIENTED_EDGE('',*,*,#71,.T.);
#96=ORIENTED_EDGE('',*,*,#72,.T.);
#97=ORIENTED_EDGE('',*,*,#76,.F.);
#98=ORIENTED_EDGE('',*,*,#75,.F.);
#99=ORIENTED_EDGE('',*,*,#77,.T.);
#100=ORIENTED_EDGE('',*,*,#78,.T.);
#101=ORIENTED_EDGE('',*,*,#78,.F.);
#102=ORIENTED_EDGE('',*,*,#79,.T.);
#103=ORIENTED_EDGE('',*,*,#74,.F.);
#104=ORIENTED_EDGE('',*,*,#80,.F.);
#105=ORIENTED_EDGE('',*,*,#77,.F.);
#106=ORIENTED_EDGE('',*,*,#80,.T.);
#107=ORIENTED_EDGE('',*,*,#73,.F.);
#108=ORIENTED_EDGE('',*,*,#79,.F.);
#109=TOROIDAL_SURFACE('',#133,3.75,1.);
#110=TOROIDAL_SURFACE('',#142,3.75,1.);
#111=ADVANCED_FACE('',(#32),#109,.T.);
#112=ADVANCED_FACE('',(#33),#30,.T.);
#113=ADVANCED_FACE('',(#34,#15),#16,.F.);
#114=ADVANCED_FACE('',(#35),#110,.T.);
#115=ADVANCED_FACE('',(#36),#17,.T.);
#116=ADVANCED_FACE('',(#37),#18,.F.);
#117=ADVANCED_FACE('',(#38),#31,.F.);
#118=ADVANCED_FACE('',(#39),#19,.T.);
#119=CLOSED_SHELL('',(#111,#112,#113,#114,#115,#116,#117,#118));
#120=DERIVED_UNIT_ELEMENT(#122,1.);
#121=DERIVED_UNIT_ELEMENT(#228,-3.);
#122=(
MASS_UNIT()
NAMED_UNIT(*)
SI_UNIT(.KILO.,.GRAM.)
);
#123=DERIVED_UNIT((#120,#121));
#124=MEASURE_REPRESENTATION_ITEM('density measure',
POSITIVE_RATIO_MEASURE(7850.),#123);
#125=PROPERTY_DEFINITION_REPRESENTATION(#130,#127);
#126=PROPERTY_DEFINITION_REPRESENTATION(#131,#128);
#127=REPRESENTATION('material name',(#129),#225);
#128=REPRESENTATION('density',(#124),#225);
#129=DESCRIPTIVE_REPRESENTATION_ITEM('Steel','Steel');
#130=PROPERTY_DEFINITION('material property','material name',#235);
#131=PROPERTY_DEFINITION('material property','density of part',#235);
#132=AXIS2_PLACEMENT_3D('',#191,#150,#151);
#133=AXIS2_PLACEMENT_3D('',#192,#152,#153);
#134=AXIS2_PLACEMENT_3D('',#194,#154,#155);
#135=AXIS2_PLACEMENT_3D('',#196,#156,#157);
#136=AXIS2_PLACEMENT_3D('',#197,#158,#159);
#137=AXIS2_PLACEMENT_3D('',#198,#160,#161);
#138=AXIS2_PLACEMENT_3D('',#202,#163,#164);
#139=AXIS2_PLACEMENT_3D('',#203,#165,#166);
#140=AXIS2_PLACEMENT_3D('',#204,#167,#168);
#141=AXIS2_PLACEMENT_3D('',#208,#170,#171);
#142=AXIS2_PLACEMENT_3D('',#209,#172,#173);
#143=AXIS2_PLACEMENT_3D('',#211,#174,#175);
#144=AXIS2_PLACEMENT_3D('',#212,#176,#177);
#145=AXIS2_PLACEMENT_3D('',#213,#178,#179);
#146=AXIS2_PLACEMENT_3D('',#214,#180,#181);
#147=AXIS2_PLACEMENT_3D('',#218,#183,#184);
#148=AXIS2_PLACEMENT_3D('',#219,#185,#186);
#149=AXIS2_PLACEMENT_3D('',#222,#189,#190);
#150=DIRECTION('axis',(0.,0.,1.));
#151=DIRECTION('refdir',(1.,0.,0.));
#152=DIRECTION('center_axis',(4.14945855453653E-15,0.,-1.));
#153=DIRECTION('ref_axis',(-1.,0.,-4.11366847019005E-15));
#154=DIRECTION('center_axis',(-4.14945855453653E-15,0.,1.));
#155=DIRECTION('ref_axis',(-1.,0.,-4.14945855453653E-15));
#156=DIRECTION('center_axis',(-1.22343655674154E-16,-1.,-5.07659928630389E-31));
#157=DIRECTION('ref_axis',(1.,-1.22343655674154E-16,4.20716093542165E-15));
#158=DIRECTION('center_axis',(4.14945855453653E-15,0.,-1.));
#159=DIRECTION('ref_axis',(-1.,0.,-4.1487281446519E-15));
#160=DIRECTION('center_axis',(4.14460591178148E-15,0.,-1.));
#161=DIRECTION('ref_axis',(-1.,0.,-4.14460591178148E-15));
#162=DIRECTION('',(-4.14460591178148E-15,0.,1.));
#163=DIRECTION('center_axis',(-4.14945855453653E-15,0.,1.));
#164=DIRECTION('ref_axis',(-1.,0.,-4.1487281446519E-15));
#165=DIRECTION('center_axis',(-4.14945855453653E-15,0.,1.));
#166=DIRECTION('ref_axis',(-1.,0.,-4.1487281446519E-15));
#167=DIRECTION('center_axis',(-4.14945855453653E-15,0.,1.));
#168=DIRECTION('ref_axis',(-1.,0.,-4.14945855453653E-15));
#169=DIRECTION('',(-1.,3.57089096808699E-15,-4.14945855453653E-15));
#170=DIRECTION('center_axis',(-4.14945855453653E-15,0.,1.));
#171=DIRECTION('ref_axis',(-0.699545807399668,0.714587757626414,-2.90273633480471E-15));
#172=DIRECTION('center_axis',(-4.14945855453653E-15,0.,1.));
#173=DIRECTION('ref_axis',(1.,0.,4.1487281446519E-15));
#174=DIRECTION('center_axis',(4.14945855453653E-15,0.,-1.));
#175=DIRECTION('ref_axis',(-1.,0.,-4.14945855453653E-15));
#176=DIRECTION('center_axis',(1.22343655674154E-16,-1.,5.07659928630389E-31));
#177=DIRECTION('ref_axis',(-1.,-1.22343655674154E-16,-4.1487281446519E-15));
#178=DIRECTION('center_axis',(-4.14945855453653E-15,0.,1.));
#179=DIRECTION('ref_axis',(-1.,0.,-4.14945855453653E-15));
#180=DIRECTION('center_axis',(-4.14945855453653E-15,0.,1.));
#181=DIRECTION('ref_axis',(-1.,0.,-4.14945855453653E-15));
#182=DIRECTION('',(1.,-3.57089096808699E-15,4.14945855453653E-15));
#183=DIRECTION('center_axis',(4.14945855453653E-15,0.,-1.));
#184=DIRECTION('ref_axis',(-0.699545807399668,0.714587757626414,-2.90273633480471E-15));
#185=DIRECTION('center_axis',(4.14460591178148E-15,0.,-1.));
#186=DIRECTION('ref_axis',(-3.46944695195359E-15,-1.,-1.42981039071308E-29));
#187=DIRECTION('',(4.14460591178148E-15,0.,-1.));
#188=DIRECTION('',(4.14460591178148E-15,0.,-1.));
#189=DIRECTION('center_axis',(-3.57089096808699E-15,-1.,-1.47999358166604E-29));
#190=DIRECTION('ref_axis',(-1.,3.57089096808699E-15,-4.14945855453653E-15));
#191=CARTESIAN_POINT('',(0.,0.,0.));
#192=CARTESIAN_POINT('Origin',(-0.210292735478716,0.0708244847471739,-9.80123510037003));
#193=CARTESIAN_POINT('',(3.53970726452129,0.0708244847471744,-10.80123510037));
#194=CARTESIAN_POINT('Origin',(-0.210292735478711,0.0708244847471739,-10.80123510037));
#195=CARTESIAN_POINT('',(4.53970726452129,0.0708244847471733,-9.80123510037001));
#196=CARTESIAN_POINT('Origin',(3.53970726452129,0.0708244847471735,-9.80123510037002));
#197=CARTESIAN_POINT('Origin',(-0.210292735478716,0.0708244847471739,-9.80123510037003));
#198=CARTESIAN_POINT('Origin',(-0.210292735478755,0.0708244847471739,-0.354235100370036));
#199=CARTESIAN_POINT('',(4.53970726452125,0.0708244847471745,-0.354235100370016));
#200=CARTESIAN_POINT('',(4.53970726452125,0.0708244847471733,-0.354235100370016));
#201=CARTESIAN_POINT('',(-4.96029273547876,0.0708244847471733,-0.354235100370056));
#202=CARTESIAN_POINT('Origin',(-0.210292735478755,0.0708244847471739,-0.354235100370036));
#203=CARTESIAN_POINT('Origin',(-0.210292735478755,0.0708244847471739,-0.354235100370036));
#204=CARTESIAN_POINT('Origin',(-0.210292735478711,0.070824484747174,-10.80123510037));
#205=CARTESIAN_POINT('',(1.18879887932063,1.49999999999999,-10.80123510037));
#206=CARTESIAN_POINT('',(-1.60938435027805,1.5,-10.80123510037));
#207=CARTESIAN_POINT('',(1.18879887932063,1.49999999999999,-10.80123510037));
#208=CARTESIAN_POINT('Origin',(-0.210292735478711,0.0708244847471739,-10.80123510037));
#209=CARTESIAN_POINT('Origin',(-0.210292735478755,0.0708244847471739,-0.354235100370036));
#210=CARTESIAN_POINT('',(-3.96029273547876,0.0708244847471734,0.645764899629949));
#211=CARTESIAN_POINT('Origin',(-0.210292735478759,0.0708244847471739,0.645764899629964));
#212=CARTESIAN_POINT('Origin',(-3.96029273547876,0.0708244847471735,-0.354235100370051));
#213=CARTESIAN_POINT('Origin',(-0.210292735478759,-0.214587757626412,0.645764899629964));
#214=CARTESIAN_POINT('Origin',(-0.210292735478755,-0.214587757626412,-0.354235100370036));
#215=CARTESIAN_POINT('',(-1.60938435027809,1.5,-0.354235100370042));
#216=CARTESIAN_POINT('',(1.18879887932059,1.49999999999999,-0.35423510037003));
#217=CARTESIAN_POINT('',(1.18879887932059,1.49999999999999,-0.35423510037003));
#218=CARTESIAN_POINT('Origin',(-0.210292735478755,0.0708244847471739,-0.354235100370036));
#219=CARTESIAN_POINT('Origin',(-0.210292735478755,0.0708244847471739,-0.354235100370036));
#220=CARTESIAN_POINT('',(1.18879887932059,1.49999999999999,-0.35423510037003));
#221=CARTESIAN_POINT('',(-1.60938435027809,1.5,-0.354235100370042));
#222=CARTESIAN_POINT('Origin',(1.18879887932059,1.49999999999999,-0.35423510037003));
#223=UNCERTAINTY_MEASURE_WITH_UNIT(LENGTH_MEASURE(0.01),#227,
'DISTANCE_ACCURACY_VALUE',
'Maximum model space distance between geometric entities at asserted c
onnectivities');
#224=UNCERTAINTY_MEASURE_WITH_UNIT(LENGTH_MEASURE(0.01),#227,
'DISTANCE_ACCURACY_VALUE',
'Maximum model space distance between geometric entities at asserted c
onnectivities');
#225=(
GEOMETRIC_REPRESENTATION_CONTEXT(3)
GLOBAL_UNCERTAINTY_ASSIGNED_CONTEXT((#223))
GLOBAL_UNIT_ASSIGNED_CONTEXT((#227,#229,#230))
REPRESENTATION_CONTEXT('','3D')
);
#226=(
GEOMETRIC_REPRESENTATION_CONTEXT(3)
GLOBAL_UNCERTAINTY_ASSIGNED_CONTEXT((#224))
GLOBAL_UNIT_ASSIGNED_CONTEXT((#227,#229,#230))
REPRESENTATION_CONTEXT('','3D')
);
#227=(
LENGTH_UNIT()
NAMED_UNIT(*)
SI_UNIT(.MILLI.,.METRE.)
);
#228=(
LENGTH_UNIT()
NAMED_UNIT(*)
SI_UNIT($,.METRE.)
);
#229=(
NAMED_UNIT(*)
PLANE_ANGLE_UNIT()
SI_UNIT($,.RADIAN.)
);
#230=(
NAMED_UNIT(*)
SI_UNIT($,.STERADIAN.)
SOLID_ANGLE_UNIT()
);
#231=SHAPE_DEFINITION_REPRESENTATION(#232,#233);
#232=PRODUCT_DEFINITION_SHAPE('',$,#235);
#233=SHAPE_REPRESENTATION('',(#132),#225);
#234=PRODUCT_DEFINITION_CONTEXT('part definition',#239,'design');
#235=PRODUCT_DEFINITION('2026-07-09-13-35-01-024',
'MACROPAD ROTARY ENCODER',#236,#234);
#236=PRODUCT_DEFINITION_FORMATION('',$,#241);
#237=PRODUCT_RELATED_PRODUCT_CATEGORY('MACROPAD ROTARY ENCODER',
'MACROPAD ROTARY ENCODER',(#241));
#238=APPLICATION_PROTOCOL_DEFINITION('international standard',
'automotive_design',2009,#239);
#239=APPLICATION_CONTEXT(
'Core Data for Automotive Mechanical Design Process');
#240=PRODUCT_CONTEXT('part definition',#239,'mechanical');
#241=PRODUCT('2026-07-09-13-35-01-024','MACROPAD ROTARY ENCODER',$,(#240));
#242=PRESENTATION_STYLE_ASSIGNMENT((#244));
#243=PRESENTATION_STYLE_ASSIGNMENT((#245));
#244=SURFACE_STYLE_USAGE(.BOTH.,#246);
#245=SURFACE_STYLE_USAGE(.BOTH.,#247);
#246=SURFACE_SIDE_STYLE('',(#248));
#247=SURFACE_SIDE_STYLE('',(#249));
#248=SURFACE_STYLE_FILL_AREA(#250);
#249=SURFACE_STYLE_FILL_AREA(#251);
#250=FILL_AREA_STYLE('Steel - Satin',(#252));
#251=FILL_AREA_STYLE('Powder Coat - Rough (Black)',(#253));
#252=FILL_AREA_STYLE_COLOUR('Steel - Satin',#254);
#253=FILL_AREA_STYLE_COLOUR('Powder Coat - Rough (Black)',#255);
#254=COLOUR_RGB('Steel - Satin',0.627450980392157,0.627450980392157,0.627450980392157);
#255=COLOUR_RGB('Powder Coat - Rough (Black)',0.0980392156862745,0.0980392156862745,
0.0980392156862745);
ENDSEC;
END-ISO-10303-21;
